<?xml version="1.0" encoding="UTF-8"?>
<!DOCTYPE svg PUBLIC "-//W3C//DTD SVG 1.1//EN" "http://www.w3.org/Graphics/SVG/1.1/DTD/svg11.dtd">
<!-- Creator: CorelDRAW (Versión de evaluación) -->
<svg xmlns="http://www.w3.org/2000/svg" xml:space="preserve" width="176.389mm" height="176.389mm" version="1.1" shape-rendering="geometricPrecision" text-rendering="geometricPrecision" image-rendering="optimizeQuality" fill-rule="evenodd" clip-rule="evenodd"
viewBox="0 0 17638.88 17638.88"
 xmlns:xlink="http://www.w3.org/1999/xlink"
 xmlns:xodm="http://www.corel.com/coreldraw/odm/2003">
 <g id="BACKGROUND">
  <metadata id="CorelCorpID_0Corel-Layer"/>
  <g id="_2689930512080">
   <polygon fill="#F9F6F0" fill-rule="nonzero" points="17638.88,17638.88 -0,17638.88 -0,0 17638.88,0 "/>
  </g>
  <g id="_2689930511312">
   <path fill="#EDDFDA" fill-rule="nonzero" d="M12686.91 14862.87c-3449.41,769.81 -4145.92,-2326.96 -5933.97,-4284.58 -796.86,-747.52 -1772.93,-1275.57 -2553.47,-2042.24 -1472.44,-1333.35 -1785.73,-3993.05 -76.04,-5263.97 2086.04,-1635.56 3378,483.57 5422.19,635.01 3577.73,-746.52 4387.51,931.76 3623.92,4109.84 -31.45,130.92 -41.06,266.44 -26.38,400.29 138.37,1261.34 1091.94,2214.36 1465.88,3393.61 331.63,1330.5 -626.61,2717.28 -1922.13,3052.04z"/>
  </g>
 </g>
 <g id="OBJECTS">
  <metadata id="CorelCorpID_1Corel-Layer"/>
  <g id="_2689930511120">
   <path fill="black" fill-rule="nonzero" d="M15357.75 7940.76c-28.49,46.14 -64.22,86.54 -101.11,125.85 -103.31,110.1 -201.54,224.59 -298.14,340.57 -147.45,177.03 -308.65,339.13 -503.48,465.17 -101.96,65.97 -208.84,120.55 -325.78,154.45 -7.07,2.04 -13.82,5.24 -22.4,8.55 16.66,12.83 34.7,15.11 51.4,20.61 108.96,35.9 214.42,80.67 319.99,125.24 83.41,35.22 167.92,67.26 257.16,85.2 32.79,6.6 65.91,7.16 98.96,9.83 10.76,0.86 27.78,-3.56 28.33,13.91 0.47,14.9 -14.82,17.22 -26.38,19.98 -69.23,16.53 -134.46,44.45 -200.43,70.19 -354.21,138.19 -688.99,313.72 -1002.01,529.38 -329.83,227.25 -308.65,190.97 -663.89,549.89 -198.81,200.86 -431.82,357.48 -673.13,502.29 -140.31,84.19 -285.85,155.94 -445.85,195.23 -61.73,15.16 -123.95,25.76 -187.42,28.92 -48.92,2.44 -96.2,-4.71 -141.6,-23.62 -29.45,-12.26 -30.89,-12.54 -42.6,16.23 -44.94,110.42 -93.72,219.09 -147.19,325.63 -59.54,118.62 -117.99,237.84 -186.46,351.75 -3.67,6.11 -9.42,12.16 -6.33,21.2 10.03,8.03 22.5,5.04 33.91,5.48 233.84,9.04 466.69,31.51 699.83,50.35 219.63,17.75 439.67,29.65 659.98,35.58 162.91,4.38 325.83,9.46 488.77,11.5 200.78,2.51 401.18,-5.44 600.5,-31.97 13.46,-1.79 26.92,-3.54 40.41,-5.06 13.79,-1.55 27.98,-2.59 35.77,12.22 9.25,17.58 -3.52,28.03 -14.21,38.65 -5.34,5.31 -11.35,9.93 -16.94,15 -136.02,123.19 -290.07,221.77 -444.04,319.65 -384.08,244.15 -789.75,447.48 -1207.06,628 -291.65,126.16 -593.01,221.13 -905.84,278.76 -185.62,34.19 -372.88,54.82 -560.96,68.55 -96.26,7.03 -192.54,15.26 -288.95,17.91 -39.76,1.1 -57.27,17.04 -73.08,51 -64.91,139.47 -132.37,277.76 -207.08,412.36 -158.38,285.31 -345.95,548.35 -584.56,773.15 -128.01,120.6 -264.14,229.51 -420.85,311.1 -171.98,89.54 -353.48,145.7 -547.52,159.16 -38.43,2.67 -39.06,3.02 -37.79,41.4 5.58,168.83 11.71,337.64 17.36,506.47 4.08,122.1 7.69,244.23 11.57,366.34 5.74,180.9 11.86,361.79 17.22,542.7 3.48,117.6 6.08,235.23 8.71,352.86 0.8,35.62 -4.61,41.58 -38.33,48.03 -41.35,7.9 -82.42,17.75 -124.08,23.37 -30.11,4.07 -60.79,-2.24 -88.33,-14.6 -19.27,-8.64 -31.59,-25.24 -35.7,-48.9 -7.01,-40.37 -10.25,-80.95 -10.34,-121.56 -0.33,-158.41 1.86,-316.83 0.95,-475.22 -1.48,-254.91 -4.29,-509.8 -13.19,-764.6 -5.85,-167.32 -8.99,-334.73 -14.64,-502.06 -10.58,-313.54 -16.58,-627.24 -34.18,-940.53 -2.96,-52.69 -4.19,-105.53 -4.49,-158.3 -0.11,-20.55 -3.92,-32.59 -26.59,-39.2 -191.61,-55.9 -367.24,-144.34 -526.92,-264.04 -19.65,-14.72 -40.88,-17.57 -63.77,-18.12 -98.54,-2.4 -195.38,13.57 -292.42,27.19 -204.89,28.78 -398.6,92.31 -584.56,182.85 -195.23,95.07 -398.05,173.77 -591.82,272.27 -139.81,71.08 -280.06,141.38 -423.65,204.72 -198,87.34 -401.33,157.06 -616.01,190.91 -326.12,51.41 -645.85,26.68 -961.25,-71.4 -305.55,-95.02 -587.34,-235.02 -842.12,-428.84 -80.68,-61.38 -156.57,-127.97 -220.86,-206.87 -20.04,-24.6 -39.37,-49.79 -52.81,-78.76 -25.31,-54.57 -10.08,-90.71 46.94,-108.42 44.9,-13.94 91.85,-16.87 138.32,-21.62 143.99,-14.75 288.5,-24.5 431.57,-47.84 284.81,-46.48 562.94,-120.33 838.98,-202.96 287.37,-86.01 573.38,-176.79 864.41,-250.09 181.48,-45.7 364.63,-81.65 551.51,-98.32 179.35,-16 355.39,0.13 529.93,41.8 283.36,67.66 549.92,179.02 809.05,309.73 60.47,30.51 120.01,62.82 186.62,97.79 -3.93,-18.4 -13.75,-24.86 -20.9,-32.62 -342.78,-372.33 -612.68,-791.05 -802.68,-1260.65 -41.98,-103.75 -74.28,-210.52 -95.6,-320.32 -4.83,-24.85 -13.49,-38.99 -38.34,-48.3 -69.83,-26.14 -130.86,-67.99 -189.07,-114.06 -139.92,-110.75 -269.92,-232.42 -391.68,-362.55 -29.83,-31.88 -52.04,-39.61 -95.07,-23.23 -112.98,43.01 -232.42,63.54 -351.35,83.8 -178.89,30.47 -359.22,45.9 -540.63,39.5 -410.36,-14.48 -797.54,-119.98 -1164.2,-303 -202.55,-101.1 -396.91,-217.03 -592.14,-331.21 -197.26,-115.36 -401.79,-213.89 -619.78,-283.57 -24.36,-7.78 -49,-15.91 -71.68,-27.48 -33.03,-16.85 -33.17,-40.11 -2.24,-61.13 7.43,-5.04 15.72,-9.01 24,-12.59 249.28,-107.55 498.86,-214.92 760.71,-288.65 315.96,-88.97 638.29,-108.2 964.22,-75.53 195.69,19.62 388.37,53.87 574.14,120.62 48.93,17.58 97.19,37.01 150.68,57.47 -11.29,-19.2 -25.74,-25.22 -37.59,-33.97 -176.66,-130.48 -337.9,-277.32 -482.19,-443.35 -162.62,-187.13 -318.66,-378.86 -442.88,-594.36 -109.3,-189.63 -207.03,-385.34 -303.13,-581.87 -67.63,-138.32 -139.03,-274.55 -219.9,-405.69 -16.62,-26.95 -32.37,-54.5 -47.24,-82.45 -9.16,-17.23 -17.66,-35.2 -23.4,-53.77 -19.67,-63.61 7.82,-97.05 74.6,-89.43 31.34,3.57 62.39,10.94 93.08,18.57 169.78,42.23 342.43,71.63 511.93,115.22 182.73,46.99 365.68,94.81 534.41,180.98 202.47,103.41 390.27,229.18 545.84,397.61 79.21,85.77 142.56,183.18 200.35,284.37 38.1,66.72 77.66,132.6 117.13,199.81 11.6,-13.33 1.9,-23.27 -0.99,-32.38 -87.86,-276.11 -116.63,-559.84 -113.82,-848.32 1.54,-158.61 8.94,-316.65 24.93,-474.4 21.82,-215.33 69.94,-425.39 126.5,-633.73 17.38,-64 33.74,-128.4 57.66,-190.41 33.9,-87.92 73.35,-97.72 143.37,-35.67 15.78,13.98 30.91,28.9 44.88,44.69 119.99,135.62 240.77,270.57 359.19,407.55 306.75,354.85 473.81,773.46 556.97,1229.73 5.38,29.55 6.06,59.98 8.53,90.03 0.45,5.43 -1.05,11.01 -1.87,18.56 -16.14,-10.73 -17.3,-26.96 -22.29,-40.4 -37.8,-101.95 -63.43,-207.63 -94.4,-311.67 -50.81,-170.75 -105.1,-340.23 -187.11,-499.18 -77.74,-150.66 -169.82,-291.97 -277.53,-423.14 -118.81,-144.69 -249.32,-279.14 -368.62,-423.36 -2.8,-3.39 -6.79,-5.79 -16.55,-6.51 29.75,94.34 60.64,188.34 88.94,283.12 28.9,96.8 56.36,194.06 82.42,291.66 26.45,99.07 50.88,198.68 75.35,298.26 24.1,98.11 47.93,196.3 70.42,294.78 22.43,98.19 43.41,196.72 52.22,297.57 -72.94,-254.24 -128.32,-513.01 -204.01,-766.47 -75.94,-254.3 -156.9,-506.93 -241.82,-760.35 -18.9,11.16 -21.39,31.66 -26.89,49.26 -35.94,115.2 -65.71,232.08 -95.07,349.11 -73.92,294.62 -98.95,594.79 -103.27,897.22 -4.6,321.91 32.23,638.38 133.29,945.45 25.91,78.73 51.15,157.86 86.75,233.07 3.61,7.63 8.4,15.88 4.86,24.34 -14.47,5.72 -17.15,-5.75 -21.64,-12.24 -21.5,-31.13 -38.92,-64.67 -54.06,-99.22 -19.49,-44.46 -44.82,-85.29 -71.46,-125.68 -59.82,-90.68 -119.41,-181.55 -177.42,-273.38 -112.72,-178.42 -257.41,-323.83 -427.98,-449.07 -233.28,-171.31 -493.54,-274.97 -770.64,-345.72 -182.57,-46.63 -368.15,-79.46 -552.39,-122.89 95.4,57.91 187.16,120.63 276.76,186.53 91.24,67.1 177.54,140.31 263.76,213.62 86.29,73.36 169.49,150.05 248.9,230.8 78.7,80.03 157.24,160.23 226.11,248.98 -2.18,2.26 -4.36,4.51 -6.54,6.76 -18.91,-18.29 -37.94,-36.46 -56.71,-54.89 -157.28,-154.41 -318.28,-304.78 -487.49,-446.1 -136.96,-114.37 -285.88,-211.95 -436.75,-306.57 -39.12,-24.54 -80.85,-44.18 -124.86,-60.04 -4.78,15.43 3.27,23.76 8.46,31.96 173.24,273.43 305.77,568.49 452.78,855.73 194.04,379.12 453.4,708 756.41,1004.26 96.11,93.96 202.32,176.52 307.33,260.29 43.62,34.8 85.91,71.29 128.31,107.6 14.98,12.82 30.52,24.39 47.77,33.99 101.67,56.59 200.55,117.18 284.61,203.96 11.75,-23.55 21.93,-44.72 32.76,-65.54 23.18,-44.57 60.95,-69.86 109.07,-80.6 60.57,-13.53 122.08,-19.12 184.02,-20.54 17.88,-0.41 35.97,1.53 52.51,-3.91 1.44,-4.46 3.81,-7.9 2.91,-9.57 -84.04,-155.07 -160.81,-314.39 -264.87,-457.83 -23.9,-32.95 -49.84,-64.42 -74.8,-96.61 -21.08,-27.2 -47.7,-43.78 -81.9,-52.25 -77.08,-19.09 -134.2,-66.48 -175.02,-133.83 -11.75,-19.38 -24.7,-39.87 -6.94,-62.43 12.56,-15.97 37.07,-16.91 66.98,-1.07 30.5,16.17 58.15,36.31 77.51,74.35 -37.43,-8.64 -62.92,-32.8 -102.26,-39.23 12.97,29.3 31.72,47.06 52.22,63.16 31.48,24.75 68.12,39.25 106.64,47.46 45.6,9.72 78.19,35.31 105.64,71.85 82.73,110.13 156.02,225.75 214.47,350.76 35.13,75.15 73.27,148.88 109.11,223.7 6.46,13.49 12.25,23.01 29.14,22.17 66.01,-3.28 132.33,-0.75 197,-7.85 3.24,-11.47 -1.77,-17.5 -5.73,-23.78 -132.07,-209.35 -213.24,-438.72 -265.52,-679.15 -16.02,-73.65 -28.69,-148.03 -42.12,-222.22 -8.49,-46.88 -25.23,-88.91 -56.75,-126.03 -41.48,-48.85 -68.19,-106.41 -87.82,-167.29 -5.16,-15.98 -9.2,-32.18 -8.13,-48.8 2.34,-36.07 31.2,-53.39 64.21,-38.05 25.56,11.88 43.24,32.92 55.41,57.78 22.85,46.68 36.92,95.98 33.15,148.38 -1.27,17.52 -0.3,32.19 10.54,46.44 21.72,28.56 29.24,62.12 33.72,97.07 30,234.37 82.47,463 173.86,681.82 34.95,83.67 75.13,164.61 117.85,244.48 10.46,19.55 21.18,29.66 45.43,25.92 44.65,-6.88 89.97,-9.36 134.75,-15.53 43.58,-6.01 43.68,-7.08 33.86,-52.32 -4.79,-22.09 -9.95,-44.15 -16.15,-65.88 -53.24,-186.41 -74.31,-378.53 -102.24,-569.49 -24,-164.12 -49.93,-327.97 -75.36,-491.88 -2.76,-17.84 -7.88,-35.3 -11.74,-52.98 -6.38,-29.23 -20.76,-51.1 -47.26,-68.07 -56.1,-35.92 -89.56,-88.57 -100.08,-154.75 -3.09,-19.45 -2.86,-39.34 3.12,-58.36 10.49,-33.36 39.32,-46.86 71.32,-34.17 56.05,22.24 89.36,104.43 64.45,166.36 -35.57,-32.93 -34.61,-91.05 -85.38,-118.26 -4.05,60.87 15.45,110.56 59.84,137.94 64.35,39.69 83.8,96.85 94.72,164.84 22.75,141.52 38.8,283.88 57.9,425.85 22.31,165.89 36.25,332.9 66.56,497.71 15.54,84.48 44.62,166.06 52.77,255.85 53.58,-9.41 100.02,-32.3 151.84,-50.89 -10.9,-25.91 -21.06,-48.78 -30.23,-72.04 -53.98,-136.95 -82.81,-280.13 -106.29,-424.81 -15.04,-92.67 -15.53,-186.25 -21.4,-279.49 -3.27,-51.97 12.11,-97.5 49.37,-136.05 28.42,-29.42 50.31,-63.97 63.31,-103.45 5.1,-15.48 10.26,-30.75 1.33,-50.87 -30.07,19.41 -34.23,55.01 -60.94,78.66 -11.27,-43.77 -4.67,-80.19 22.13,-111.04 26.63,-30.67 66.32,-24.99 86.38,10.78 13.13,23.41 14.89,48.55 8.06,74.54 -11.32,43.1 -29.05,84.93 -60.77,114.82 -53.87,50.74 -61.74,115.09 -65.09,181.54 -5.35,105.96 7.37,210.61 25,315.06 18.9,111.96 46.18,221.35 86.89,327.33 5.95,15.48 12.41,30.77 19.21,45.89 4.82,10.74 12.38,16.92 25.13,11.72 39.09,-15.94 78.17,-31.87 117.36,-47.56 12.83,-5.13 12.54,-16.02 11.8,-26.46 -1.72,-24.06 -5.24,-48.01 -6.42,-72.08 -11.36,-230.96 12.3,-457.91 78.9,-679.86 4.76,-15.88 10.79,-31.55 13.74,-47.77 5.84,-32.11 19.45,-59.5 40.96,-84.16 21.83,-25.01 40.27,-52.82 54.95,-82.74 5.61,-11.45 15.52,-22.84 6.61,-37.77 -19.8,5.1 -26.98,22.91 -37.76,36.86 -9.73,12.59 -14.59,29.1 -32.61,42.08 -6.07,-45.12 3.58,-81.19 29.17,-112.26 17.57,-21.33 42.49,-26.34 65.29,-16.74 23.02,9.69 36.29,30.87 36.02,57.45 -0.18,17.03 -5.96,32.45 -13.18,47.56 -17.03,35.6 -38.74,68.33 -63.78,98.56 -19.59,23.66 -33.79,49.83 -44.47,78.21 -82.53,219.06 -113.41,446.38 -108.46,679.43 0.58,27.15 0.59,54.31 0.53,81.48 -0.05,19.36 8.76,22.91 25.89,16.89 48.34,-16.99 96.56,-34.52 145.57,-49.41 59.07,-17.95 118.17,-36.39 180.31,-41.61 85.49,-7.18 129.6,18.88 163.57,97.11 4.07,9.37 4.95,20.56 16.52,29.11 11.96,-12.32 13.06,-29.39 17.66,-44.07 52.85,-168.39 159.68,-292.36 312.81,-376.65 114.9,-63.25 239.21,-98.89 369.07,-115.67 25.05,-3.23 43.98,-10.57 63.68,-32.68 128.47,-144.14 204.31,-315.49 265.73,-494.95 69.95,-204.38 119.82,-414.12 166.31,-624.78 52,-235.62 104.74,-471.06 157.02,-706.61 4.54,-20.43 8.1,-41.07 14.18,-72.26 -135.03,91.97 -240.66,202.43 -348.65,310.34 -108.45,108.37 -209.47,223.09 -301.59,345.57 176.22,-274.64 403.77,-503.34 644.16,-723.13 -5.4,-8.49 -14.68,-0.18 -20.97,1.73 -361.77,109.59 -696.21,271.72 -989.03,514.19 -115.34,95.5 -224.55,196.89 -318.86,313.8 -135.32,167.75 -228.13,354.3 -258.31,569.74 -6.84,48.8 -18.04,96.99 -28.88,154.14 -11.27,-22.9 -7.63,-38.71 -7.01,-53.69 11.99,-289.25 109.01,-544.19 302.63,-761.97 154.69,-174.01 334.13,-317.9 526.97,-446.43 208.85,-139.19 437.57,-235.73 674.62,-314.38 35.76,-11.87 71.39,-24.34 107.68,-34.4 64.25,-17.79 94.67,7.78 83.28,73.33 -13.16,75.73 -30.11,150.84 -46.92,225.89 -63.94,285.49 -127.03,571.17 -193.3,856.12 -45.49,195.57 -103.61,387.59 -185.02,571.65 -46.51,105.17 -102.74,204.95 -177.05,293.59 -3.74,4.47 -8.76,8.67 -6.1,19.02 18,-0.49 36.94,-0.61 55.83,-1.59 102.8,-5.31 205.1,3.17 307.41,11.07 123.38,9.52 246.73,19.46 370.64,17.67 6.03,-0.09 12.08,-0.24 18.09,-0.68 31.64,-2.31 32.92,-2.66 33.02,-34.65 0.58,-187.22 11.6,-374.06 20.16,-560.97 11.61,-253.26 24.1,-506.51 39.45,-759.58 12.51,-206.32 29.13,-412.42 45.59,-618.48 2.53,-31.62 -4.78,-53.52 -28.97,-74.52 -186.87,-162.23 -372.69,-325.6 -581.08,-460.77 -157.91,-102.42 -329.39,-176.4 -504.54,-242.46 -241.17,-90.96 -484.16,-177.19 -724.26,-270.84 -329.45,-128.51 -647.42,-280.58 -940.61,-480.67 -153.49,-104.76 -302.38,-215.26 -436.48,-344.52 -55.47,-53.47 -109.08,-108.67 -153.54,-171.97 -15.67,-22.32 -29.71,-45.65 -35.46,-72.75 -10.56,-49.76 8.85,-81.74 59,-94.88 30.77,-8.07 62.62,-10.2 94.35,-8.8 232.18,10.27 464.4,19.49 696.08,39.09 162.4,13.73 324.71,27.78 485.76,53.55 378.5,60.56 738.45,176.53 1074.92,361.8 243.36,133.99 428.66,325.19 559.51,570.02 64.11,119.97 117.96,244.45 168.7,370.44 76.62,190.27 153.05,380.61 225.79,572.42 12.04,31.75 26.79,62.47 44.41,103.17 13.38,-44.61 13.51,-78.97 16.94,-112.81 17.03,-168.22 44.81,-334.89 74,-501.27 34.43,-196.09 70.57,-391.88 106.93,-587.63 26.17,-140.88 54.16,-281.43 93.32,-419.42 5.63,-19.84 5.36,-32.66 -10.44,-51.21 -56.44,-66.27 -128.79,-108.88 -204.18,-147.24 -182.58,-92.9 -339.08,-218.58 -475.8,-370.39 -130.9,-145.36 -242.41,-304.29 -338.49,-474.39 -149.79,-265.16 -259.43,-547.43 -358.23,-834.55 -94.69,-275.17 -150.44,-558.56 -187.64,-846.46 -26.08,-201.83 -49.76,-404.15 -96.34,-602.79 -18.31,-78.11 -42.71,-153.95 -75.54,-227.14 -18.53,-41.3 -36.09,-83.01 -47.28,-127.06 -5.29,-20.8 -16.7,-38.59 -27.26,-56.9 -14.31,-24.81 -28.75,-49.64 -41.28,-75.35 -7.22,-14.81 -13.07,-32.23 1.94,-46.17 15.48,-14.38 31.38,-5.49 45.52,3.41 13.98,8.81 27.73,18.45 39.96,29.52 26.83,24.29 53.6,48.79 78.73,74.81 273.67,283.28 551.34,562.7 821.48,849.4 134.78,143.04 260.87,292.86 369.64,457 191.44,288.9 313.71,603.23 359.1,947.79 30.37,230.45 52.73,461.5 66.52,693.4 12.02,202.34 45.88,401.4 84.95,599.8 6.09,30.91 9.09,62.6 20.48,93.06 15.17,-10.24 15,-26.43 19.48,-40.21 126.67,-388.95 272.12,-770.64 442.54,-1142.63 30.15,-65.79 64.02,-129.81 92.35,-196.52 9.49,-22.35 10.35,-36.84 -9.82,-54.6 -51.55,-45.39 -88.82,-102.45 -120.84,-162.7 -128.03,-240.85 -200.73,-497.38 -210.48,-770.12 -4.48,-125.45 10.55,-250.4 35.18,-373.37 64.99,-324.46 151.41,-642.9 279.05,-948.96 146.54,-351.37 320.68,-688.99 511.18,-1018.3 43.07,-74.45 90.09,-146.52 144.37,-213.53 20.98,-25.9 43.32,-50.5 71.11,-69.22 50.99,-34.36 105.28,-27.39 145.89,18.67 30.58,34.67 47.87,76.56 62.01,119.76 30.64,93.6 45.66,190.5 58.81,287.69 24.94,184.25 30.65,369.53 31.27,555.25 0.49,148.04 -3.45,295.93 -16.76,443.17 -33.48,370.3 -86.33,737.33 -213.04,1089.34 -117.23,325.69 -281.71,626.7 -483.25,907.74 -26.38,36.78 -53.22,73.23 -79.91,109.78 -21.34,29.23 -41.44,59.07 -79.57,70.36 -16.61,4.92 -22.97,22.11 -29.74,37.83 -161.12,374.19 -305.52,754.49 -432.53,1141.78 -103.17,314.6 -173.98,636.93 -247.05,958.94 -34.71,152.97 -66.27,306.58 -89.42,461.87 -17.8,119.47 -29.21,239.59 -39.72,359.79 -19.6,223.95 -42.99,447.57 -53.18,672.31 -15.23,336.21 -25.42,672.61 -33.47,1009.02 -4.3,179.66 -14.84,358.74 -27.01,537.89 -3.56,52.43 -16.58,58.96 53.19,53.76 96.42,-7.17 193.05,-9.38 289.43,-2.67 31.28,2.18 45.36,-9.05 59.62,-34.2 143.14,-252.54 258.39,-517.69 366.74,-786.65 179,-444.4 314.61,-902.48 445.2,-1362.51 60.53,-213.24 125.27,-425.29 189.84,-637.36 10.22,-33.54 8.22,-57.17 -15.82,-85.4 -90.04,-105.74 -129.88,-232.99 -148.6,-368.29 -31.62,-228.61 -13.46,-454.27 37.13,-678.51 70.73,-313.54 186.41,-611.18 318.29,-902.96 195.91,-433.46 415.41,-854.51 669.55,-1256.97 84.61,-133.99 173.63,-265.04 272.7,-388.95 33.95,-42.46 69.23,-83.77 107.96,-121.97 12.86,-12.69 26.13,-25.27 40.7,-35.86 54.84,-39.87 107.11,-28.37 140.52,30.29 21.31,37.39 29.27,78.97 36.46,120.63 16.98,98.49 18.84,198.17 20.39,297.65 2.54,161.45 0.4,322.99 -6.93,484.23 -10.5,230.82 -36.98,459.96 -84.26,686.52 -64.17,307.47 -144.43,610.29 -251.09,906.01 -111.99,310.49 -272.32,594.16 -466.63,860 -134.98,184.68 -309.94,319.46 -511.59,422.68 -59.24,8.08 -68.31,52.94 -79.56,101.06 -39.86,170.46 -95.38,336.48 -146.98,503.62 -65.42,211.92 -113.83,428.43 -170.88,642.62 -79.68,299.16 -180.13,591.13 -296.58,877.95 -73.19,180.27 -143.09,361.81 -229.34,536.47 -22.76,46.07 -46.85,91.23 -75.37,133.95 -9.2,13.78 -19.23,27.08 -29.85,39.79 -6.76,8.09 -16.06,16.82 -26.75,7.51 -10.3,-8.96 -3.66,-19.23 2.86,-27.89 91.77,-121.9 149.24,-262.17 206.66,-401.19 118.54,-287 240.62,-572.75 332.52,-870.16 72.18,-233.58 131.41,-470.52 191.98,-707.16 45.65,-178.35 104.77,-352.65 156.9,-529.05 24.77,-83.85 46.28,-168.68 68.31,-253.31 3.31,-12.74 15.71,-32.42 -6.53,-38.05 -24.27,-6.13 -18.84,19.15 -21.93,30.76 -54.36,204.07 -121.27,404.43 -178.85,607.57 -79.36,280.01 -154.49,561.41 -248.42,836.99 -120.2,352.68 -249.44,702.02 -409.95,1038.89 -46.08,96.71 -95.65,191.63 -148.42,284.87 -6.6,11.66 -12.48,23.73 -21.47,40.91 29.39,5.48 55.5,9.64 81.29,15.28 85.25,18.63 98.6,60.38 40.47,125.31 -4.02,4.5 -8,9.08 -12.45,13.14 -184.35,167.81 -347.6,356.55 -525.9,530.34 -30.26,29.49 -60.25,59.33 -91.75,87.46 -16.91,15.11 -24.31,31.78 -26.86,54.41 -46.14,409.09 -156.19,801.26 -315.16,1180.25 -35.05,83.56 -74.99,164.81 -126.51,239.71 -9.98,14.52 -14.25,28.66 -12.97,46.26 13.73,189.55 26.88,379.15 40.26,568.73 2.96,42.05 6.18,84.08 9.68,131.37 18.12,-22.76 15.07,-46.14 17.83,-67.21 27.71,-211.52 74.1,-418.52 144.62,-620.11 111.89,-319.81 273.38,-613.71 461.98,-893.88 198.7,-295.17 427.73,-565.01 674.89,-820.42 325.84,-336.71 670.38,-652.56 1039.62,-941.14 61.77,-48.28 126.54,-92.8 190.95,-137.58 28.01,-19.47 58.18,-45.9 94.73,-25.34 36.29,20.42 30.37,59.29 27.98,93.77 -5.84,84.45 -22.56,167.39 -38.88,250.2 -46.07,233.95 -99.77,466.15 -178.82,691.47 -121.92,347.5 -298.85,661.98 -563.11,922.89 -112.06,110.65 -236.06,206.75 -364.58,297.11 -85.16,59.87 -170.84,119.12 -258,176.03 -248.89,162.48 -474.37,352.92 -680.54,566.51 -83.83,86.86 -165.78,175.54 -249,262.99 -145.67,153.07 -239.18,335.39 -301.84,535.24 -5.52,17.59 -7.83,35.23 -7.47,53.45 4.37,220.2 11.89,440.26 25.95,660.08 3.56,55.61 4.33,111.41 6.45,168.89 23.75,1.38 31.32,-16.61 40.65,-30.73 46.65,-70.57 88.43,-143.89 123.28,-221.08 69.5,-153.97 139.66,-307.62 221.48,-455.62 72.33,-130.84 151.46,-257.32 237.34,-379.72 254.77,-363.09 596.67,-595.12 1030.72,-691.49 196.4,-43.61 394.78,-69.85 595.36,-81.73 114.48,-6.77 228.96,-12.92 343.7,-11.03 16.28,0.27 26.41,-3.78 35.1,-20.62 86.5,-167.51 173.51,-334.73 254.15,-505.19 46.46,-98.22 89.35,-197.92 128.2,-299.38 5.58,-14.58 9.02,-24.07 -7.83,-37.52 -155.62,-124.21 -247.08,-286.56 -275.05,-483.06 -26.32,-184.87 -4.52,-367.27 39.11,-547.47 53.27,-220.06 125.95,-434.4 193.45,-650.26 65.73,-210.17 129.14,-421.01 176.57,-636.22 34.18,-155.13 54.02,-312.23 54.44,-471.22 0.46,-173 -38.74,-337.86 -107.06,-496.26 -54.5,-126.39 -119.63,-247.22 -194.21,-362.68 -58.05,-89.88 -119.64,-177.48 -179.98,-265.87 -4.31,-6.31 -10.63,-11.27 -5.44,-19.47 5.56,-8.79 12.47,-10.09 22.95,-6.39 56.84,20.07 114.51,37.81 170.98,58.82 94.76,35.26 186.62,77.3 276.78,123.07 152.78,77.57 283.83,182.33 393.93,313.51 5.64,6.73 9.61,15.56 21.53,18.95 6.57,-9.36 1.77,-18.56 -0.95,-27.73 -108.42,-365.37 -94.97,-732.82 -18.16,-1101.19 20.01,-95.98 44.09,-191.08 72.49,-284.92 26.52,-87.65 65.07,-109.68 148.68,-77.11 290.93,113.31 536.89,285.97 709.68,551.66 65.79,101.16 107.59,212.17 130.08,330.57 3.06,16.13 7.6,32.2 2.47,51.26 -11.41,-5.3 -12.19,-15.97 -15.14,-24.43 -14.89,-42.72 -28.02,-86.08 -44.05,-128.36 -69.2,-182.45 -187.9,-328.9 -334.04,-454.89 -130.37,-112.4 -278.16,-196.16 -436.23,-262.58 -10.35,-4.35 -20.66,-13.52 -35.59,-7.53 3.52,5.28 6.12,10.5 9.89,14.64 150.72,165.7 232.88,364.57 279.19,580.27 33.78,157.35 39.75,316.99 34,477.32 -3.08,85.93 -8.61,171.68 -21.95,257.53 -0.05,-16.18 -0.41,-32.35 -0.09,-48.52 2.49,-128.22 8.71,-256.41 1.92,-384.66 -13.13,-247.75 -67.01,-483.63 -203.3,-695.39 -36.02,-55.97 -76.33,-108.67 -121.98,-157.13 -11.04,-11.72 -20.51,-26.16 -37.79,-29.73 -8.93,5.68 -10.99,14.61 -13.44,23.34 -48.86,174.38 -96.83,349.32 -114.11,530.07 -20.43,213.58 -27.75,427.74 4.07,641.2 14.25,95.56 36.46,189.54 62.51,282.53 11.39,40.69 26.77,79.98 46.6,117.57 64.4,122.09 95.77,253.39 106.15,390.15 16.45,216.46 -3.83,430.97 -35.69,644.81 -6.22,41.74 -12.61,83.48 -18.66,125.26 -0.3,2.06 1.97,4.5 3.13,6.93 8.67,-3.11 9.6,-11.72 11.81,-18.16 85.21,-248.44 189.29,-489.32 292.67,-730.5 71.94,-167.81 125.58,-342.64 195.04,-511.43 21.21,-51.55 43.32,-102.84 57.59,-157.04 8.34,-31.71 29.7,-55.17 51.66,-78.46 51.22,-54.28 93.81,-114.35 116.35,-186.51 7.61,-24.35 15.5,-49.18 12,-75.31 -3,-22.43 -14.87,-28.3 -34.48,-17.08 -15.99,9.15 -27.64,23.25 -38.31,37.99 -34.29,47.37 -54.85,100.24 -63.64,157.96 -2.42,15.9 -0.21,33.85 -16.36,45.21 -15.99,-3.49 -20.65,-16.38 -23.37,-29.62 -3.63,-17.71 -6.14,-35.68 -3.13,-53.93 10.55,-63.95 36.08,-121.13 77.63,-170.92 16.65,-19.94 36.14,-36.55 61.51,-44.5 46.8,-14.68 84.83,9.05 93.09,57.47 5.22,30.62 0.24,60.48 -8.55,89.37 -26.1,85.79 -72.19,160.1 -141.36,216.8 -34.36,28.18 -57.64,60.58 -72.25,100.98 -56.87,157.38 -118.56,312.92 -168.31,472.98 -61.36,197.42 -140.72,388.39 -219.15,579.54 -39.5,96.29 -75.47,193.9 -110.02,292.04 -4.32,12.27 -12.78,24.18 -9.03,39.29 13.84,-7.67 17.63,-21.46 24.01,-32.91 67.64,-121.41 143.29,-237.67 224.87,-350.11 13.34,-18.39 26.41,-36.74 32.41,-59.13 38.68,-144.17 106.38,-275.38 181.2,-403.26 48.75,-83.31 98.96,-165.78 148.51,-248.64 28.66,-47.94 53.82,-97.54 73.04,-150.12 3.72,-10.18 5.85,-19.74 5.16,-30.65 -4.74,-74.56 15.86,-143.1 50.93,-207.93 5.7,-10.55 12.34,-20.88 20.09,-29.98 22.27,-26.14 49.88,-35 76.47,-24.31 28.62,11.51 40.79,34.91 41.19,64.39 0.93,68.65 -25.05,128.13 -72.94,174.85 -63.27,61.74 -112.53,133.07 -159.93,206.71 -88.99,138.26 -180.38,274.99 -255.64,421.61 -30.94,60.29 -57.14,122.25 -78.1,189.52 19.62,-6.6 25.32,-21.64 34.37,-32.95 179.08,-223.94 362.35,-444.39 551.17,-660.19 18.84,-21.53 39.3,-41.82 60.49,-61.05 24.01,-21.79 43.83,-14.97 49.13,17.3 3.15,19.16 2.15,39.13 1.73,58.72 -2.56,122.29 -13.68,244.08 -23.44,365.89 -8.56,106.75 -20.64,213.22 -31.52,319.77 -2.74,26.93 -6.85,53.72 -10.79,84.08 12.72,-10.86 15.36,-22.88 18.98,-34.67 56.5,-184.58 115.52,-368.17 182.94,-549.27 24.65,-66.23 52.67,-126.97 96.14,-181.98 34.18,-43.25 57.4,-92.21 60.25,-148.66 0.83,-16.36 4.79,-37.44 -12.62,-44.84 -20.1,-8.54 -32.98,10.45 -43.61,24.44 -34.62,45.59 -53.09,97.69 -58.33,154.57 -2.47,26.8 -2,54.11 -14.2,83.45 -18.91,-17.15 -18.69,-38.89 -19.96,-57.78 -5.18,-77.07 18.52,-146.12 65.83,-206.4 20.98,-26.73 48.44,-49.96 85.31,-38.41 37.67,11.8 43.18,46.93 45.17,81.16 2.79,47.83 -6.78,93.22 -30.54,134.95 -11.17,19.62 -22.7,39.52 -37.13,56.71 -49.27,58.72 -79.73,127.3 -108.5,197.22 -83.3,202.36 -147.43,411.69 -225.21,616.04 -23.1,60.7 -42.56,122.22 -58.24,185.35 -26.57,107.01 -64.88,210.25 -108.06,311.72 -5.47,12.87 -17.33,25 -10.53,44.29 3.97,-4.66 7.3,-7.78 9.69,-11.5 124.02,-193.6 276.51,-365.72 414.01,-549.15 62.42,-83.28 127.42,-164.61 183.6,-252.49 31.95,-49.98 72.93,-92.11 120.98,-127.29 57.67,-42.22 106.39,-93.62 150.18,-149.79 13.94,-17.87 27.17,-36.67 31.48,-59.49 6.99,-37.02 -14.49,-55.76 -50.06,-43.66 -23.38,7.96 -41.83,23.73 -58.52,41.48 -28.34,30.15 -47.73,65.71 -62.64,104.01 -6.35,16.29 -10.37,34.09 -28.74,49.42 -6.13,-21.25 -3.31,-37.9 2.43,-54.39 19.77,-56.83 52.19,-105.19 98.02,-144.25 18.73,-15.96 39.93,-26.86 65.2,-28.37 43.68,-2.63 68.66,17.46 74.38,60.63 1.14,8.65 0.95,17.48 1.4,26.71 16.67,0.36 20.74,-13.18 28.04,-21.54 129.54,-148.42 293.29,-228.36 488.83,-244.32 225.1,-18.37 449.28,-4.34 673.07,20.66 67.45,7.53 134.82,15.62 201.53,28.74 36.42,7.16 67.38,22.07 90.51,51.64 -0.87,18.09 -1.74,36.18 -2.61,54.27zm-4342.59 3933.37l0 0c59.56,8.82 59.39,8.73 82.35,-31.26 122.54,-213.37 233.06,-432.8 332.87,-657.67 6.11,-13.75 12.86,-27.27 20.14,-40.45 9.48,-17.17 22.79,-26.22 44.2,-23.72 32.95,3.83 66.18,5.04 99.27,7.69 42.42,3.4 83.87,1.32 125.34,-10.96 92.52,-27.39 173.67,-75.46 251.83,-130.5 121.19,-85.32 217.49,-195.31 309.41,-309.48 82.3,-102.24 162.05,-206.53 243.42,-309.52 215.03,-272.16 467.89,-503.63 754.57,-698.32 349.03,-237.03 734.34,-366.23 1155.83,-388.29 45.89,-2.4 91.88,-1.89 138.49,-3.17 -2.84,-11.81 -10.77,-13.06 -17.6,-15.31 -70.23,-23.12 -138.22,-52.02 -206.73,-79.6 -99.34,-40 -199.99,-76.06 -303.44,-104.22 -157.34,-42.84 -316.7,-59.99 -479.33,-41.47 -187.59,21.37 -353.09,97.91 -507.69,202.08 -48.76,32.86 -98.65,64.31 -146.8,97.71 -57.65,39.99 -110.52,86.47 -146.53,150.57 -176.5,314.29 -354.36,627.81 -533.2,940.78 -72.6,127.04 -149.43,251.63 -235.83,369.99 -58.11,79.61 -122.35,153.3 -203.15,211.07 -39.46,28.22 -80.63,53.42 -127.85,66.34 -20.19,5.52 -41.12,12.09 -68.5,5.82 31.1,-32.68 63.99,-51 95.95,-70.19 90.48,-54.33 166.54,-124.36 230.53,-207.95 57.83,-75.55 111.4,-154.07 160.42,-235.54 238,-395.51 461.17,-799.49 686.13,-1202.45 176.51,-316.16 272.15,-655.76 300.87,-1015.66 9.24,-115.76 22.75,-231.17 33.11,-346.85 3.95,-44.06 4.54,-88.42 7.09,-141.55 -7.43,12.98 -11.48,18.81 -14.32,25.18 -78.64,176.34 -161.18,350.97 -249.04,522.75 -255.58,499.7 -493.12,1007.94 -716.87,1522.43 -166.83,383.63 -344.68,760.95 -565.08,1117.14 -4.76,7.69 -8.52,15.99 -13.39,23.6 -4.15,6.48 -10.05,13.02 -18.33,9.16 -10.94,-5.12 -7.88,-15.27 -3.95,-23.2 7.35,-14.84 15.74,-29.19 24.21,-43.43 148.92,-250.27 292.29,-503.56 408.55,-771.06 156.91,-361.01 323.82,-717.44 487.45,-1075.4 173.74,-380.06 372.59,-747.77 549.63,-1126.2 42.43,-90.71 82.11,-182.47 120.92,-275.18 -33.07,36.99 -63.09,76.03 -94.31,114.09 -133.95,163.33 -268.01,326.58 -402.49,489.48 -230.95,279.78 -418.83,585.68 -566.06,917.47 -101.46,228.65 -182.62,465.81 -296.25,689.44 -62.09,122.19 -113.2,249.95 -169.29,375.19 -68.82,153.69 -119.9,311.99 -135.88,481.03 -4.38,46.36 -0.36,89.63 10.06,133.86 4.17,17.74 14.29,36.07 3.49,57.33 -26.03,-11.46 -31.75,-34.22 -36,-55.74 -18.24,-92.29 -24.14,-185.31 -10.38,-278.82 15.96,-108.41 53.57,-210.4 97.25,-309.91 96.36,-219.54 195.27,-437.96 292.28,-657.21 32.9,-74.38 69,-147.48 90.97,-226.41 48.93,-175.86 93.58,-352.69 126.57,-532.33 44.5,-242.28 75.18,-485.74 68.81,-732.94 -6.26,-242.34 -79.54,-459.16 -239.67,-643.66 -89.72,-103.37 -193.57,-190.18 -312.24,-258.72 -124.35,-71.83 -255.24,-129.75 -389.17,-181 -6.33,-2.42 -13.88,-12.41 -23.53,-0.77 29.86,31.67 67.19,52.06 100.96,76.81 267.59,196.08 429.2,457.87 481.41,784.91 39.65,248.37 22.95,496.43 -18.23,743.3 -42.74,256.16 -106.37,507.54 -173.4,758.22 -68.95,257.82 -148.31,512.83 -209.16,772.83 -28.9,123.47 -55.38,247.42 -57.53,374.96 -1.53,90.73 17.61,176.58 62.49,256.25 13.46,23.89 30.17,45.07 47.82,65.74 24.12,28.25 32.92,57.53 18.75,95.26 -18.54,49.34 -33.63,100.05 -54.79,148.45 -81.56,186.63 -169.43,370.23 -265.37,549.93 -16.93,31.69 -33.4,63.64 -52.06,99.25zm-5693.36 -1204.07l0 0c-13.88,-47.4 -28.35,-82.51 -33.81,-118.98 -7.02,-46.98 -31.9,-80.61 -65.95,-109.34 -24.17,-20.39 -49.33,-39.94 -75.73,-57.3 -216.03,-142.16 -449.56,-246.66 -699.87,-309.97 -260.33,-65.85 -525.76,-90.16 -794.39,-77.93 -201.23,9.16 -399.21,37.5 -592.04,96.93 -230.8,71.14 -454.47,161.65 -678.4,251.4 -8.26,3.31 -17.42,5.22 -22.1,16.04 11.2,4.43 22.07,9.69 33.5,13.11 237.12,71.06 455.73,182.1 668.67,306.28 188.86,110.14 377.16,221.46 573.53,318.11 271.49,133.63 557.36,220.56 856.71,263.76 216.52,31.24 433.25,28.53 649.94,2.95 158.97,-18.76 315.76,-49.18 469.45,-94.37 14.72,-4.32 32.3,-5.13 42.9,-18.81 -2.46,-4.75 -3.37,-7.82 -5.29,-10 -100.23,-113.17 -194.37,-230.94 -270.28,-362.18 -9.79,-16.92 -24.19,-21.7 -40.27,-25.14 -64.89,-13.9 -129.78,-27.44 -196.39,-31.03 -86.01,-4.65 -171.89,-0.55 -257.81,1.76 -13.58,0.37 -27.16,0.92 -40.73,0.88 -13.46,-0.03 -27.58,3.29 -48.73,-6.03 75.79,-19.5 143.31,-32.82 212.16,-40.7 67.46,-7.73 135,-0.83 211.24,1.94 -11.11,-8.6 -13.19,-10.83 -15.74,-12.08 -10.83,-5.3 -21.77,-10.35 -32.71,-15.42 -210.15,-97.28 -432.32,-149.7 -661.01,-178.73 -60.61,-7.7 -121.89,-13.19 -180.36,-32.97 341.58,12.47 676.01,57.32 993.51,227.82zm2747.3 2955.29l0 0c4.66,-18.31 1.18,-34.81 -1.04,-50.84 -9.74,-70.33 -13.97,-141.02 -15.98,-211.89 -3.64,-128.11 -5.48,-256.31 -11.01,-384.34 -9.62,-222.96 -25.58,-445.55 -46.47,-667.73 -11.72,-124.6 -28.4,-248.64 -46.56,-372.46 -2.41,-16.46 -6.93,-30.44 -22.8,-41.59 -82.46,-57.93 -149.51,-131.46 -204.9,-215.01 -114.17,-172.23 -200.86,-357.18 -251.62,-558.15 -8.88,-35.18 -8.74,-34.89 -43.76,-30.75 -118.73,14.04 -237.32,21.18 -354.56,-11.25 -14.33,-3.96 -19.32,2.62 -21.08,14.98 -1.27,8.96 -2.3,17.96 -3.7,26.9 -18.5,117.91 -42.52,234.42 -88.79,345.17 -19.28,46.16 -42.92,89.66 -76.13,127.63 -15.56,17.8 -34.34,31.44 -57.23,33.33 -38.81,3.21 -77.69,5.22 -115.29,-12.36 -38.36,-17.93 -75.49,-37.56 -111.02,-60.51 -9.38,-6.06 -17.4,-16.72 -32.22,-13.73 -18.14,44.6 -33.59,91.65 -68.09,126.4 -21.67,21.81 -21.89,40.69 -13.9,68.23 52.83,181.94 131.5,352.79 216.63,521.31 187.56,371.33 429.6,701.73 736.28,983.55 172.59,158.6 365.31,286.02 586.45,367.66 15.06,5.57 29.15,14.39 46.79,15.45zm-208.47 -3368.56l0 0c31.37,-14.18 62.47,-28.97 94.14,-42.45 151.36,-64.42 298.41,-137.7 442.58,-216.68 79.37,-43.48 158.26,-87.89 240.26,-126.1 208.4,-97.09 414.73,-200.62 648.96,-224.23 -15.05,-3.79 -29.86,-6.24 -44.75,-8.08 -123.4,-15.34 -247.16,-11.57 -370.36,-0.97 -214.11,18.41 -427.73,17.7 -641.38,-4.89 -160.96,-17.02 -321.93,-20.93 -482.89,0.55 -132.68,17.7 -260.23,51.53 -376.4,120.33 -147.67,87.45 -249.13,211.71 -298.78,377.2 -9.76,32.54 -12.21,64.69 -7.57,98.2 25.39,183.02 22.69,366.96 14.85,550.81 -3.47,81.3 -12.8,162.37 -20.68,243.43 -2.05,21.07 3.99,28.58 25.48,31.82 128.15,19.31 255.88,14.34 382.57,-8.72 230.54,-41.97 438.04,-140.79 634.75,-264.6 278.57,-175.33 527.02,-387.24 757.64,-621.25 145.02,-147.16 282.8,-301.58 437.89,-438.7 5.42,-4.8 12.23,-9.37 10.85,-18.54 -8.32,-5.23 -17.29,-2.11 -26.03,-1.7 -112.72,5.28 -220.07,34.77 -324.97,73.9 -209.4,78.12 -411.14,173.31 -607.78,279.12 -143.77,77.37 -293.4,140.89 -446.17,197.58 -12.29,4.56 -23.96,12.88 -42.21,3.97zm-2481.27 226.45l0 0c7.87,-16.8 24.18,-22.35 39.24,-27.72 51.81,-18.45 105.04,-27.73 160.02,-17.68 106.78,19.53 205.64,57.88 293.71,122.7 79.77,58.7 147.32,128.89 204.88,209.32 69.47,97.06 130.05,199.68 191.58,301.75 60.78,100.84 124.24,199.9 199.01,291.22 83.67,102.17 184.75,181.34 306.41,233.73 35.02,15.08 34.85,15.5 60.94,-12.34 54.02,-57.64 84.32,-128.02 107.31,-202.01 41.37,-133.1 62.59,-269.88 76.7,-408.31 22.56,-221.19 28.78,-442.49 11.07,-664.15 -5.76,-72.06 -12.89,-144.51 -41.88,-212.14 -21.86,-50.98 -51.17,-68.37 -106.36,-65.35 -30.24,1.66 -59.73,7.32 -89.13,14.43 -122,29.5 -238.91,73.78 -355.1,120.4 -95.09,38.15 -189.09,79.36 -288.83,104.74 -3.38,0.86 -8.61,1.6 -6.36,7.67 205.47,76.54 265.26,111.87 365.28,208.27 98.05,94.51 201.27,253.75 209.43,370.82 -117.83,-257.32 -282.13,-455.82 -557.4,-536.92 81.98,51.26 156.2,111.99 219.13,185.99 61.96,72.85 112.77,152.85 152.79,239.69 48.39,105.03 84.71,230.67 78.11,270.63 -10.62,-15.47 -14.81,-33.17 -21.02,-50.01 -40.28,-109.11 -85.03,-216.14 -145.81,-315.79 -93.72,-153.66 -219.95,-270.46 -385.77,-343.53 -31.68,-13.96 -62.94,-18.23 -96.67,-15.44 -108.28,8.98 -216.84,9.76 -325.41,11.14 -70.73,0.91 -141.75,-1 -211.66,14.73 -71.48,16.09 -101.99,51.6 -104.72,125.04 -0.62,16.75 2.34,32.94 5.88,49.24 27.99,128.82 84.4,244.84 159.93,351.85 198.26,280.93 440.54,519.46 709.03,732.41 45.05,35.72 94.67,64.62 148.57,85.34 50.22,19.3 82.5,10.73 115.9,-30.84 24.85,-30.94 38.91,-67.75 55.76,-103.16 9.5,-19.95 6.14,-32.12 -9.65,-46.84 -68.83,-64.15 -124.73,-139.13 -177.51,-216.6 -54.4,-79.84 -104.09,-162.62 -153.46,-245.6 -50.95,-85.62 -103.95,-169.93 -164.43,-249.2 -96.6,-126.62 -217.73,-221.13 -369.31,-272.92 -82.18,-28.08 -166.08,-46.33 -251.87,-11.93 -1.96,0.78 -5.17,-1.57 -8.33,-2.63zm2034.45 -8076.18l0 0c-3.94,5.68 -2.01,11.44 -0.22,17.22 42.61,137.36 64.55,278.87 85.02,420.74 28.01,194 47.81,389.31 84.77,581.88 88.82,462.7 250.98,899.85 470.65,1315.63 114.8,217.27 260.14,412.85 432.62,588.98 155.42,158.7 352.86,253.87 537.91,369.87 2.51,-14.63 -4.51,-26.62 -8.95,-38.95 -70.56,-196.01 -127.88,-395.79 -176.98,-598.28 -70.07,-288.85 -150.65,-574.87 -259.42,-851.94 -178.5,-454.69 -428.22,-867.72 -737.8,-1244.64 -143.75,-175.03 -285.4,-351.39 -409.88,-540.9 -4.89,-7.45 -8.82,-15.94 -17.72,-19.61zm-41.92 11112.36l0 0c0.05,-1.25 0.09,-2.49 0.14,-3.73 -19.12,-3.44 -38.28,-6.64 -57.35,-10.36 -78.39,-15.28 -156.13,-34.01 -236.04,-40.8 -328.43,-27.89 -653.75,-3.13 -977.07,56.63 -252.12,46.61 -500.21,110.84 -748.73,172.93 -460.36,115.02 -925.32,199.43 -1400.98,212.44 -261.02,7.14 -517.92,-21.06 -768.54,-97.82 -55.76,-17.08 -110.33,-37.56 -169.6,-59.66 10.82,20.33 23.96,30.74 35.85,42.1 45.87,43.83 94.67,84.17 145.52,122.11 234.15,174.69 490.93,304.86 768.23,396.53 334.62,110.63 674.63,139.68 1022.08,77.96 215.37,-38.25 418.66,-112.87 617.08,-202.59 145.7,-65.89 286.4,-142.09 431.41,-209.32 194.23,-90.04 390.04,-176.7 584.33,-266.62 172.28,-79.75 351.58,-134.78 539.61,-161.09 71.29,-9.98 142.7,-19.16 214.06,-28.71zm1133.77 197.52l0 0c41.49,-21.87 75.69,-52.3 109.19,-83.84 95.93,-90.31 176.71,-193.98 260.61,-294.85 211.37,-254.08 475.71,-428.38 790.24,-528.09 301.68,-95.63 612.18,-133.16 927.08,-138.85 179.44,-3.23 358.98,-0.1 538.47,-1.33 205.37,-1.41 409.75,-18.02 612.76,-48.7 352.91,-53.35 696.5,-142.76 1030.29,-269.72 209.96,-79.85 420.18,-159 623.72,-254.52 16.85,-7.91 35.8,-13.32 54.21,-34.69 -36.52,7.68 -65.74,13.38 -94.75,19.99 -462.93,105.56 -931.55,146.04 -1405.9,126.99 -183.9,-7.39 -367.79,-15.27 -551.84,-19.84 -253.52,-6.3 -506.7,-7.26 -759.64,12.96 -172.97,13.83 -345.03,34.75 -513.95,75.6 -431.31,104.3 -792.49,324.31 -1082.07,660.67 -118.71,137.88 -212.18,293.13 -300.27,451.39 -63.45,114.01 -134.32,221.83 -227.65,313.79 -3.95,3.89 -7.02,8.67 -10.5,13.04zm4937.6 -1604.1l0 0c-14.06,-6.49 -21.95,3.21 -30.76,7.32 -347.56,162.14 -703.42,302.74 -1072.3,408.66 -492.79,141.5 -996.82,190.35 -1507.92,178.88 -167.46,-3.76 -334.7,-1.17 -501.78,13.35 -204.84,17.8 -407.07,49.33 -604.17,108.96 -243.98,73.82 -468.7,182.87 -656.95,359.36 -103.87,97.38 -195.57,205.28 -283.77,316.49 -2.49,3.14 -5.24,7.67 0.52,11.14 8.16,0.87 13.92,-4.44 20.01,-8.41 129.55,-84.35 272.02,-136.11 422.96,-165.18 190.14,-36.64 383.05,-47.61 575.92,-55.91 290.86,-12.52 581.75,-23.41 871.84,-49.54 255.89,-23.05 508.21,-65.36 756.23,-133.07 286.19,-78.15 558.76,-191.56 826.57,-317.42 397.85,-186.97 784.64,-393.69 1146.78,-644.23 12.72,-8.8 28.08,-15.15 36.82,-30.4zm-3383.38 1224.45l0 0c-23.45,-5.96 -42.77,-3.96 -61.97,-3.1 -52.7,2.39 -105.38,5.45 -158.1,7.41 -168.75,6.29 -337.13,17.26 -504.61,39.69 -203.5,27.27 -392.2,92.64 -560.16,213.72 -68.52,49.39 -136.9,98.88 -203.88,150.35 -63.4,48.73 -127.2,97.15 -201.01,129.53 -19.14,8.4 -21.43,20.37 -20.82,39.05 9.09,275.68 11.89,551.57 26.87,827.06 6.03,110.88 -19.82,92.93 103.28,81.52 2.98,-0.27 5.87,-1.36 8.82,-1.99 141.12,-30.11 272.74,-86.06 401.57,-149.03 265.06,-129.53 479.28,-321.64 668.82,-544.32 189.98,-223.18 332.73,-476.57 471.81,-732.42 9.89,-18.2 18.89,-36.89 29.38,-57.47zm3556.4 -4550.23l0 0c26.22,-24.12 51.9,-48.86 78.74,-72.27 177.64,-154.9 365.99,-296.09 558.05,-432.32 113.31,-80.37 231.9,-152.54 355.78,-215.7 164.07,-83.63 336.19,-141.01 520.41,-158.42 45.09,-4.26 90.24,-7.83 138.53,-11.99 -14.08,-12.55 -27.74,-13.51 -41,-15.46 -258.8,-38.07 -518.75,-57.44 -780.45,-46.51 -98.67,4.12 -193.89,22.56 -285.58,61.87 -133.76,57.35 -242.25,145.62 -332.06,258.48 -32.05,40.27 -64.06,81.2 -106.17,110.79 -74.2,52.13 -129.86,121.14 -183.9,191.93 -133.73,175.13 -272.11,346.49 -414.34,514.76 -78.94,93.39 -153.79,189.95 -221.12,292.17 -6.9,10.48 -15.84,20.19 -18.34,34.57 12.41,-2.07 17.74,-9.94 24.51,-15.6 310.23,-259.25 660.08,-367.26 1061.57,-278.15 18,3.99 35.62,2.64 53.82,0.01 145.13,-20.95 273.85,-81.81 393.7,-163.02 134.2,-90.93 255.23,-196.93 364.11,-317.56 120.37,-133.34 230.95,-275.04 352.41,-407.37 47.95,-52.24 95.11,-105.2 142.11,-158.3 7.18,-8.11 18.92,-15.7 12.24,-32.28 -69.04,-0.61 -138.11,5.71 -206.72,14.42 -164.81,20.91 -319.82,73.73 -466.98,150.02 -174.58,90.51 -337.85,199.1 -497.11,313.82 -158.04,113.84 -308.45,237.48 -459.25,360.59 -12.1,9.88 -23.3,22.03 -42.96,21.52zm-6124.51 2296.01l0 0c0.4,7.28 -0.33,12.05 1.03,16.11 60.9,180.68 135.2,355.22 238.22,516.44 52.3,81.86 113.08,156.8 188.57,218.41 33.86,27.63 51.34,57.38 58.64,103.77 22.04,140.11 40.53,280.48 55.38,421.46 30.98,294.2 48.04,589.2 52.98,884.97 2,119.16 5.73,238.28 24.31,356.36 2.1,13.36 3.24,27.08 2.89,40.57 -0.7,26.57 -7.11,31.29 -33.97,24.35 -40.84,-10.55 -81.44,-21.75 -120.83,-37.46 -201.57,-80.35 -378.79,-199.2 -538.21,-344.61 -275.57,-251.38 -501.01,-542.59 -680.19,-869.57 -112.53,-205.33 -216.38,-414.55 -279.88,-641.36 -15.24,-54.42 -15.68,-54.3 -75.01,-40.13 -1.91,16.71 4.11,32.39 8.32,48.11 21.11,78.76 47.84,155.67 77.97,231.39 173.47,436.12 420.77,827.6 723.16,1184.63 241.95,285.67 533.16,501.03 897.45,607.31 36.83,10.74 38.09,14.71 37.43,54.45 -0.18,10.55 0.19,21.12 0.71,31.67 9.65,197.33 21.02,394.56 26.35,592.11 8.1,300.01 17.97,599.98 28.3,899.93 8.25,239.69 12.75,479.46 15.23,719.24 1.78,171.96 -1.66,343.95 -1.2,515.93 0.16,60.25 -3.39,120.71 3.89,180.82 6.43,53.06 10.76,56.77 65.26,58.15 31.82,0.81 62.95,-4.9 94.34,-9.36 25.67,-3.65 30.42,-15.95 29.22,-39.84 -4.37,-87.34 -6.74,-174.79 -9.34,-262.22 -5.25,-176.38 -9.67,-352.78 -15.33,-529.15 -7.69,-239.67 -15.71,-479.33 -24.54,-718.96 -8.23,-223.05 -18.63,-446.03 -26.38,-669.09 -8.81,-253.21 -15.62,-506.49 -23.54,-759.73 -4.11,-131.14 -7.54,-262.33 -13.41,-393.39 -7.76,-173.29 -13.11,-346.65 -14.84,-520.07 -1.16,-116.15 0.52,-232.41 -6.52,-348.34 -14.81,-243.88 -32.66,-487.58 -39.8,-731.88 -0.69,-23.55 3.47,-43.87 16.78,-63.9 38.45,-57.89 71.1,-119.14 99.66,-182.48 160.25,-355.49 262.94,-728.3 333.57,-1110.69 5.89,-31.86 8.45,-64.34 13.75,-105.87 -28.72,23.46 -56.22,34.51 -61.4,66.58 -18.76,116.42 -52.84,229.13 -83.38,342.65 -46.99,174.71 -91.17,350.36 -160.15,518.28 -49.88,121.43 -102.03,241.8 -168.84,355.17 -16.85,28.6 -34.67,56.8 -57.94,80.73 -40.22,41.34 -86.72,45.93 -134.5,13.74 -32.69,-22.02 -61.45,-48.74 -88.52,-77.23 -81.84,-86.16 -145.06,-185.17 -196.97,-291.37 -53.03,-108.49 -102.74,-218.51 -127.71,-337.68 -2.89,-13.82 -6.03,-22.3 -23.15,-18.02 -29.06,7.26 -58.55,12.8 -87.86,19.07zm2216.6 -6769.95l0 0c-32.76,-94.45 -28.21,-190.48 -20.85,-286.59 6.23,-81.31 20.14,-161.53 36.31,-241.36 39.82,-196.57 92.6,-390.12 136.07,-585.85 43.16,-194.25 87.02,-388.25 116.54,-585.32 23.01,-153.52 48.49,-306.81 78.18,-459.18 51.89,-266.3 108.12,-531.76 161.98,-797.68 24.24,-119.65 46.09,-239.79 71.17,-359.25 11.09,-52.78 27.54,-104.44 41.91,-157.94 -18.49,4.74 -24.86,19.49 -33.73,30.9 -38.02,48.85 -71.9,100.57 -104.28,153.28 -82.13,133.69 -155.68,272.19 -228.7,410.93 -217.51,413.31 -407.37,837.58 -515.34,1294.69 -35.01,148.25 -69.34,296.34 -87.64,447.88 -28.27,233.98 8.78,459.74 80.86,681.61 37.42,115.21 85.47,225.55 150.45,328.03 30.74,48.49 66.07,93.19 117.07,125.85zm-6787.78 9289.63l0 0c6.08,10.25 15.93,10.22 24.13,12.39 106.68,28.2 215.22,45.83 325.12,54.9 124.85,10.31 249.91,13.85 375.22,12.15 164.47,-2.22 328.37,-12.61 491.98,-28.86 220.93,-21.94 438,-65.92 654.44,-113.7 244.23,-53.91 486.66,-116.06 733.98,-155.71 300.01,-48.1 601.6,-72.24 905.48,-66.17 137.75,2.75 273.43,21.47 407.7,51.67 173.48,39 347,77.86 520.61,116.29 14.7,3.25 28.77,13.26 46.78,8.75 -9.04,-14.79 -22.37,-19.44 -34.12,-25.36 -83.45,-42.02 -167.83,-82.24 -250.76,-125.25 -186.38,-96.69 -380.15,-176.06 -577.66,-246.21 -168.07,-59.69 -340.51,-102.7 -518.61,-119.73 -145.11,-13.88 -289.18,-1.44 -432.75,19.53 -212.26,31 -419.12,85.55 -625.13,143.75 -291.48,82.34 -579.54,176.32 -871.84,255.86 -295.8,80.48 -595,142 -901.61,163.33 -75.12,5.23 -149.97,14.64 -224.86,22.81 -17.53,1.91 -35.77,4.32 -48.1,19.56zm2532.17 -8047.59l0 0c1.22,16.11 9.2,23.46 15.86,30.87 29.24,32.52 57.91,65.66 88.72,96.65 139.99,140.79 298.59,258.4 462.17,369.86 285.77,194.7 595.58,342.81 916.33,468.39 231.54,90.65 466.06,173.65 698.82,261.21 177.93,66.94 353.4,139.33 515.41,240.73 125.6,78.62 244.25,166.42 356.99,262.44 12.55,10.69 23.68,25.76 49.98,28.96 -70.59,-95.44 -136.08,-185.67 -203.33,-274.57 -182.32,-241.04 -387.84,-458.99 -643.46,-623.8 -206.87,-133.39 -424.05,-248.36 -651.62,-342.89 -262.3,-108.94 -534.87,-186.79 -807.58,-263.81 -223.37,-63.08 -448.23,-121.03 -665.03,-205.34 -43.09,-16.76 -86.85,-31.79 -133.26,-48.7zm3039.26 8111.62l0 0c11.52,-1.89 16.51,-12.15 23.49,-19.38 59.93,-62.11 112.25,-130.04 156.85,-204.05 63.04,-104.62 124.8,-210.1 190.86,-312.79 119.21,-185.32 263.25,-349.02 437.27,-485.23 306.11,-239.62 651.73,-385.16 1036.76,-440.28 323.58,-46.31 648.67,-57.04 974.67,-49.09 229.23,5.58 458.37,15.16 687.53,23.32 158.35,5.64 316.71,7.39 475,-0.24 332.2,-16.02 659.87,-64.39 983.36,-141.28 20.12,-4.78 41.71,-6.24 59.5,-19.98 -10.29,-6.67 -20.49,-2.63 -30.48,-1.75 -103.67,9.14 -207.49,16.84 -311.56,17.16 -135.73,0.42 -271.55,1.06 -407.19,-3.19 -248.76,-7.79 -497.63,-12.11 -746.02,-31.55 -204.53,-16 -408.89,-34.34 -613.55,-48.35 -266.59,-18.26 -533.36,-22 -800.3,-4.61 -177.72,11.59 -354.51,29.49 -528.9,66.7 -185.11,39.49 -364.55,95.37 -530.83,187.95 -211,117.46 -378.01,283.33 -520.02,476.09 -86.87,117.92 -162.89,242.84 -235.64,369.91 -114.09,199.25 -196.92,413.76 -303.17,616.8 -0.33,0.63 1.42,2.35 2.37,3.84zm-16.67 -1407.67l0 0c7.69,-12.34 15.79,-24.44 23.02,-37.04 57.16,-99.57 122.04,-193.88 192.53,-284.46 199.05,-255.77 425.59,-484.85 672.28,-694.5 218.52,-185.72 429.33,-379.37 623.52,-591.02 242.56,-264.35 459.95,-546.75 636.14,-859.96 104.52,-185.81 177.33,-386.06 265.14,-579.47 1.57,-3.45 2.31,-7.91 -3.22,-11.42 -3.85,4.24 -8.28,8.3 -11.77,13.05 -138.02,187.63 -295.83,357.85 -459.49,522.94 -192.25,193.94 -392.78,379.28 -591.48,566.45 -258.45,243.44 -500.88,500.34 -717.85,782.47 -240.02,312.09 -431.83,649.69 -578.7,1013.89 -20.7,51.34 -40.91,103.05 -50.12,159.07zm1925.24 -5609.36l0 0c9.79,-4.48 15.37,-6.72 20.65,-9.52 165.41,-87.82 302.41,-208.48 414.04,-358.41 194.81,-261.67 353,-543.12 464.25,-850.6 106.42,-294.15 186.05,-595.49 250.16,-901.34 46.53,-222.05 73.41,-446.67 83.38,-672.84 8.77,-198.85 11.1,-398.09 4.11,-597.19 -2.26,-64.2 -4.97,-128.58 -20.36,-193.52 -13.52,14.12 -11.34,30.01 -13.64,44.51 -7.83,49.14 -14.97,98.39 -23.06,147.49 -31.65,192.03 -74.72,381.78 -114.66,572.16 -43.07,205.28 -90.7,409.54 -165.41,605.97 -99.73,262.18 -195.16,525.68 -278.42,793.69 -56.94,183.29 -143.03,355.12 -222.99,529.04 -129.12,280.82 -266.31,557.95 -383.64,844.13 -5.57,13.59 -14.62,26.13 -14.41,46.43zm468.94 2710.26l0 0c-4.02,1.13 -6.33,1.12 -6.76,2.01 -9.07,18.94 -18.69,37.66 -26.71,57.05 -69.24,167.36 -143.86,331.93 -237.34,487.66 -222.11,369.99 -498.37,696.03 -804.68,997.99 -155.95,153.75 -323.44,294.69 -488.14,438.7 -237.17,207.37 -450.95,436.4 -638.58,689.44 -99.16,133.74 -181.43,277.69 -248.6,430.07 -11.76,26.67 -24.99,53.45 -24.96,85.51 14.9,-6.39 18.48,-18.89 24.52,-28.84 49.52,-81.58 107.52,-156.74 172.29,-226.62 85.15,-91.84 170.21,-183.79 256.9,-274.17 198.15,-206.57 415.84,-389.92 654.84,-547.88 88.1,-58.22 175.45,-117.64 261.99,-178.16 139.91,-97.83 274.7,-202.05 394.67,-324.29 216.87,-221.01 371.27,-481.5 485.22,-767.48 81.76,-205.2 136.61,-418.32 184.41,-633.42 15.22,-68.47 31.52,-136.79 40.93,-207.57zm3826.2 -52.75l0 0c-14.15,-14.91 -33.28,-11.64 -50.68,-12.53 -69.38,-3.52 -138.61,1.82 -207.85,5.24 -271.09,13.4 -530.05,77.5 -778.15,186.66 -289.34,127.31 -538.63,313.54 -770.4,525.22 -177.85,162.44 -329.26,348.38 -474.8,539.31 -70.43,92.4 -142.98,182.98 -218.48,271.31 -79.09,92.54 -169.97,170.94 -272.58,236.12 -9.94,6.31 -21.96,10.42 -28.09,21.97 10.85,7.26 20.26,0.34 29.9,-2.73 79.24,-25.28 155.09,-58.49 228.11,-98.18 185.89,-101.04 361.94,-217.12 531.05,-344.2 144.17,-108.33 270.18,-236.02 396.23,-363.89 72.09,-73.12 146.25,-144.29 230.03,-203.94 221.15,-157.46 442.01,-315.53 682.09,-443.94 222.12,-118.8 445.73,-234.36 688.43,-307.08 5.65,-1.69 11.79,-2.88 15.19,-9.34zm-6039.99 -1944.77l0 0c6.12,-17.03 -4.74,-29.62 -10.03,-42.93 -72.96,-183.52 -146.16,-366.95 -219.69,-550.24 -44.94,-112.03 -94.71,-221.81 -152.49,-327.93 -125.17,-229.88 -301.28,-408.96 -530.33,-536.18 -125.46,-69.67 -255.89,-128.21 -389.64,-179.81 -334.98,-129.22 -684.29,-191.03 -1040.29,-221.11 -260.07,-21.97 -520.55,-37.61 -781.38,-47.25 -27.17,-1 -54.35,-2.23 -81.15,3.35 -7.22,1.5 -19.06,-2.72 -19.46,12.13 3.94,1.91 7.66,4.76 11.78,5.55 88.82,16.96 177.83,32.99 266.52,50.64 152.24,30.3 305.25,57.81 454.71,100.05 233.43,65.98 466.28,134.08 698.62,203.81 184.72,55.44 369.38,111.98 543.9,195.72 179.88,86.32 352.74,184.35 505.51,314.43 161.58,137.58 286.9,305.24 396.61,484.87 100.66,164.79 204,327.79 310.31,488.94 10.57,16.04 18.73,34.5 36.5,45.96zm1675.23 -684.21l0 0c18.11,-12.63 23.29,-31.75 30.91,-49.22 40.39,-92.55 80.25,-185.34 120.1,-278.12 91.02,-211.99 197.76,-416.68 291.11,-627.58 85.99,-194.28 178.3,-386 239.15,-590.48 52.03,-174.89 111.82,-347.09 177.98,-517.17 55.72,-143.26 111.2,-286.77 150.7,-435.63 79.3,-298.88 139.5,-601.95 196.25,-905.73 6.56,-35.09 17.97,-70.08 12.89,-117.67 -8.01,26.57 -13.29,43.25 -18.07,60.08 -39.6,139.37 -85.26,276.53 -149.19,406.96 -57.71,117.75 -113.4,236.55 -173.86,352.87 -277.56,533.91 -506.04,1087.32 -667.73,1667.55 -74.44,267.13 -153.06,533.29 -192.41,808.76 -10.61,74.27 -17.5,148.9 -17.83,225.38zm87.33 -5889.98l0 0c-7.74,17.91 -3.84,34.38 -2.24,50.19 13.04,129.22 15.98,258.75 16.54,388.55 0.64,151.31 -10.27,301.29 -38.88,449.93 -25.08,130.28 -53.25,260.08 -74.09,391.04 -40.97,257.59 -81.06,515.25 -127.65,771.96 -64.27,354.11 -158.31,699.65 -282.88,1037.05 -36.54,98.98 -75.45,197.08 -111.97,296.06 -10.66,28.88 -20.6,58.74 -19.66,99.84 11.05,-12.96 17.04,-19.13 22.06,-26.02 35.56,-48.73 71.76,-97.03 106.2,-146.54 200.92,-288.8 365.21,-596.8 474.97,-931.64 103.89,-316.94 152.02,-645.27 182.13,-976.16 25.19,-276.82 25.74,-554.36 6.04,-831.64 -9.72,-136.91 -26.81,-273.08 -60.71,-406.54 -10.8,-42.48 -23.85,-84.24 -46.06,-122.35 -10.36,-17.76 -20.53,-36.5 -43.8,-43.73zm1103.66 2187.68l0 0c-47.19,35.67 -85.29,80.3 -122.14,125.96 -121.43,150.51 -228.37,311.19 -329.34,475.8 -224.15,365.43 -421.92,744.9 -600.01,1134.73 -127.33,278.72 -240.9,562.52 -315.7,860.5 -58.08,231.35 -86.57,465.04 -56.82,703.63 15.88,127.41 48.11,248.6 125.26,354.06 5.87,8.01 8.82,19.74 21.52,20.98 1.67,-2.36 4.57,-4.53 4.54,-6.67 -1.38,-108.52 -2.57,-217.05 -4.76,-325.55 -1.77,-87.6 -1.63,-175.26 14,-261.6 49.48,-273.28 117.08,-542.33 203.39,-806.12 159.14,-486.38 382.07,-943.81 637.85,-1386.04 79.23,-136.99 155.98,-275.48 231.08,-414.78 81.05,-150.34 119.97,-318.18 191.13,-474.9zm-8600.39 10652.15l0 0c13.27,40.59 36.33,62.97 70.24,78.26 212.99,96.01 438.33,141.91 669.13,163.06 195.84,17.95 391.91,9.51 587.36,-9.17 339.62,-32.45 674.82,-90.98 1006.15,-172.55 264.8,-65.19 528.33,-135.96 796.27,-187.7 219.4,-42.37 440.52,-69.87 664.35,-74.31 76.92,-1.53 153.68,1.05 230.98,2.72 -2.8,-8.96 -9.88,-7.72 -15.27,-9.07 -109.79,-27.4 -220.5,-49.74 -333.08,-62.49 -156.46,-17.7 -313.45,-13.68 -470.13,-8.76 -249.05,7.82 -495.64,40.26 -740.39,86.35 -225.18,42.41 -447.58,97.69 -671.07,147.85 -403.67,90.61 -812.33,129.8 -1225.53,122.77 -190.24,-3.23 -379.19,-19.81 -569.01,-76.96zm5648.31 -3113.65l0 0c-22.74,5.86 -32.94,19.78 -45.42,29.71 -265.75,211.33 -542.06,404.28 -873.44,501.06 -21.09,6.16 -26.07,17 -19.68,36.37 3.77,11.44 6.58,23.21 10.01,34.77 49.5,166.58 128.51,318.47 229.49,459.31 46.93,65.44 102.81,122.36 166.65,171.44 36.13,27.78 52.09,26.69 83.05,-8.77 24.87,-28.5 44.19,-61.06 62.17,-94.29 61.11,-112.89 113.47,-229.79 160.48,-349.18 73.69,-187.18 118.93,-382.86 172.56,-576.03 18.44,-66.43 35.35,-133.29 54.13,-204.39zm2652.06 -3259.35l0 0c-0.14,2.9 -1.38,6.27 -0.21,8.09 6.48,10.16 13.54,19.95 20.4,29.87 83.49,120.56 157.12,246.84 218.28,380.16 60.08,130.94 102.95,267 120.17,410.7 22.53,188 1.21,373.41 -32.29,557.94 -32.36,178.28 -82.9,352.08 -134.18,525.61 -73.05,247.23 -158.13,490.78 -225.81,739.65 -50.14,184.35 -83.13,370.69 -68.36,563.04 8.57,111.61 38.06,216.44 95.73,312.78 5.39,8.99 9.41,20.23 26.65,26.68 -17.78,-67.24 -17.98,-130.24 -14.56,-193.59 5.71,-105.93 27.11,-209.28 50.46,-312.26 47.04,-207.44 108.49,-411.04 164.99,-615.96 95.41,-346.01 190.05,-692.17 240.07,-1048.6 28.02,-199.67 35.71,-399.65 7.9,-599.75 -44.23,-318.17 -191.47,-577.82 -446.69,-774.71 -6.46,-4.98 -11.9,-13.95 -22.55,-9.65zm-336.98 1885.01l0 0c-2.52,-2.5 -5.04,-5.01 -7.57,-7.52 -79.23,52.33 -156.24,107.9 -230.69,166.83 -372.16,294.54 -719.89,615.73 -1048.06,958.53 -243.72,254.6 -466.69,525.5 -660.89,819.9 -217.31,329.43 -392.73,678.28 -494.93,1061.29 -25.07,93.97 -45.75,188.9 -59.53,288.59 18.68,-13.72 17.45,-32.23 21.65,-47.42 95.6,-345.83 243.91,-669.15 435.1,-970.9 238.31,-376.16 524.04,-714.61 847.89,-1021.21 238.86,-226.14 480.4,-449.56 712.07,-683.22 154.15,-155.47 302.59,-316.08 433.42,-492.13 17.72,-23.85 34.39,-48.47 51.54,-72.74zm-2127.6 -813.15l0 0c-21.86,455.72 -39.58,825 -57.27,1194.3 -0.73,15.07 -0.51,30.21 -1.83,45.22 -1.64,18.64 3.73,29.29 24.77,26.66 10.46,-1.31 21.08,-1.83 31.62,-1.86 12.96,-0.04 19.36,-6.7 20.77,-18.83 1.04,-8.98 1.61,-18.03 2.12,-27.07 8.77,-156.69 19.51,-313.3 25.8,-470.09 11.62,-289.48 20.82,-579.05 30.67,-868.61 10.2,-300.22 33.9,-599.5 62.14,-898.48 11.64,-123.14 22.45,-246.33 40.94,-368.72 28.86,-191.05 71.7,-379.27 113.61,-567.7 67.14,-301.83 140.62,-601.7 238.17,-895.71 121.19,-365.3 257.02,-724.68 410.79,-1077.39 4.22,-9.67 8.5,-19.32 12.81,-28.96 3.95,-8.84 0.1,-13.42 -7.92,-17.34 -20.01,-9.76 -28.15,-7.65 -37.07,14.92 -33.86,85.69 -78.37,166.41 -115.99,250.33 -129.04,287.88 -236.47,584.15 -340.89,881.53 -72.99,207.87 -139.29,417.82 -179.73,634.92 -31.48,169.03 -61.84,338.27 -92.15,507.52 -27.38,152.91 -55.42,305.74 -77.33,459.57 -23.81,167.31 -41.28,335.1 -51.43,504 -16.2,269.56 -39,538.73 -52.6,721.79zm1541.41 -1814.14l0 0c12.01,-15.28 12.25,-28.89 14.03,-42.1 3.43,-25.4 6.81,-50.82 10.8,-76.14 25.85,-164.14 67.87,-324.62 109.81,-485.14 127.15,-486.81 289.9,-961.21 494.25,-1421.19 106.59,-239.93 227.78,-472.76 345.1,-707.42 106.24,-212.53 198.13,-429.92 250.4,-662.58 3,-13.33 9.84,-26.5 2.74,-46.38 -23.3,38.63 -33.67,76.4 -46.42,112.99 -44.73,128.41 -97.02,253.37 -163.54,372.26 -105.31,188.2 -210.93,376.24 -314.32,565.5 -267.91,490.37 -485.66,1000.86 -616.81,1545.92 -27.16,112.9 -54.89,225.53 -75.18,340.04 -29.49,166.31 -9.46,332.94 -10.86,504.24zm-4878.22 -1015.53l0 0c12.89,14.36 24.82,16.86 35.99,21.03 118.61,44.24 237.41,88.37 358.84,123.98 229.93,67.44 460.82,131.61 691.4,196.82 377.28,106.7 738.52,250.76 1078.3,448.65 230.49,134.23 435.39,297.35 609.79,499.05 101.77,117.71 194.55,242.26 283.81,369.54 6.07,8.65 12.94,16.73 25.37,32.72 -5.24,-25.79 -15.84,-36.74 -23.5,-49.12 -50.05,-80.77 -100.98,-161 -150.44,-242.12 -51.08,-83.76 -103.78,-166.35 -161.69,-245.61 -105.7,-144.7 -225.72,-275.72 -372.82,-379.13 -184.61,-129.78 -382.74,-234.35 -595.63,-310.66 -326.65,-117.09 -663.55,-200.15 -995.13,-300.88 -165.97,-50.43 -337.41,-79 -507.11,-114.21 -89.91,-18.65 -180.14,-35.52 -277.18,-50.06zm3528.55 -250.17l0 0c-3.7,-40.28 -7.76,-80.53 -11.06,-120.85 -20.92,-255.48 -45.83,-510.43 -79.96,-764.64 -47.57,-354.27 -177.25,-674.79 -379.41,-967.77 -87.59,-126.95 -185.09,-245.84 -290.12,-358.59 -299.29,-321.26 -611.37,-630.32 -909.55,-952.65 -7.43,-8.04 -13.59,-19.38 -32.07,-19.92 17.13,33.21 33.81,62.74 56.76,88.45 54.25,60.78 108.12,121.92 163.11,182.02 158.89,173.64 322.17,343.39 475.17,522.26 188.39,220.26 369.6,446.02 511.94,700.37 162.23,289.91 292.22,592.07 359.31,918.97 43.07,209.91 71.7,422.08 98.86,634.49 6.04,47.27 14.76,94.17 37.02,137.86zm1211.75 8084.49l0 0c-66.12,-4.55 -65.75,-4.36 -91.03,46.06 -38.5,76.79 -77.21,153.48 -116.46,229.89 -141.64,275.74 -321.17,523.41 -541.76,741.99 -229.49,227.41 -497.98,388.59 -804.68,487.24 -71.56,23.02 -144.12,43.09 -222.59,35.71 -5.56,31.54 2.71,62.85 1.48,94.15 -0.65,16.45 10.58,20.2 24,19.39 31.57,-1.91 63.47,-2.06 94.61,-6.94 258.85,-40.54 491.11,-143.59 695.8,-306.03 203.16,-161.22 379.08,-349.25 529.29,-560.79 169.14,-238.19 301.44,-497.16 425.4,-760.7 2.49,-5.29 3.41,-11.31 5.94,-19.97zm233.01 -12436.6l0 0c-1.15,23.89 -2.86,47.76 -3.35,71.66 -2.41,118.06 -20.19,234.42 -39.66,350.49 -36.18,215.69 -68.9,431.91 -101.27,648.2 -24.55,164.07 -50.03,328.16 -89.99,489.31 -115.79,466.88 -233.15,933.37 -349.92,1400 -24.1,96.28 -42.39,193.48 -49,292.94 9.51,-0.66 10.86,-6.75 13.12,-12.39 150.46,-375.79 281.54,-757.46 358.9,-1156.08 43.68,-225.06 87.35,-450.05 120.87,-676.92 23.58,-159.64 49.19,-318.9 82.26,-476.98 25.31,-121.01 47.11,-242.63 59.79,-365.99 11.15,-108.47 9.8,-217 10.75,-325.53 0.7,-79.55 0.83,-159.36 -12.5,-238.71zm-1540.98 3970.84l0 0c-5.64,-40.32 -10.59,-72.81 -14.7,-105.41 -62.39,-495.28 -239.08,-948.45 -508.84,-1365.97 -142.69,-220.85 -308.83,-424.35 -483.95,-620.26 -153.82,-172.08 -309.35,-342.63 -464.21,-513.77 -6.21,-6.85 -11.24,-16.08 -27.99,-19.92 55.39,92.49 111.76,176.13 168.75,259.41 116.98,170.96 253.74,326.12 386.27,484.63 262.75,314.22 483.24,654.92 649.15,1030.14 112.47,254.38 196.92,518.35 270.49,786.11 5.39,19.59 7.04,40.84 25.03,65.04zm1517.14 -3955.91l0 0c-23.8,63.15 -38.4,127.73 -49.45,192.86 -43.62,257.17 -103.96,510.99 -152.26,767.22 -30.99,164.37 -70.02,327.21 -98.58,492.08 -52.51,303.1 -117.51,603.57 -186.7,903.24 -45.77,198.23 -100.38,394.48 -135.47,595.12 -13.82,78.96 -25.99,158.23 -21.81,238.85 13.64,-63.34 22.71,-127.53 37.95,-190.22 29.54,-121.52 64.9,-241.65 93.66,-363.35 62.75,-265.51 130.13,-529.85 199.81,-793.57 76.72,-290.37 137.57,-583.7 178.83,-881.21 32.1,-231.44 71.84,-461.69 111.1,-692.01 15.19,-89.12 27.99,-178.47 22.92,-269.01zm2511.28 6737.62l0 0c25.94,-15.87 40.39,-31.02 53.36,-47.31 23.8,-29.89 37.93,-64.65 47.02,-101.44 3.65,-14.75 7.04,-33.54 -9.24,-40.2 -16.48,-6.73 -25.68,10.85 -35.07,22.29 -1.91,2.31 -3.51,4.89 -5.09,7.43 -29.06,46.7 -44.42,97.75 -50.98,159.23zm-7371.97 1395.25l0 0c9.53,35.56 21.93,69.73 49.09,96.68 -11.83,-34.45 -22.7,-69.36 -49.09,-96.68z"/>
   <path fill="black" fill-rule="nonzero" d="M13864.05 7895.57c8.35,-43.75 24.08,-79.55 38.01,-115.75 45,-116.94 84.85,-235.44 111.67,-358.01 31.83,-145.5 39.37,-292.84 29.37,-440.97 -9.74,-144.4 -21.14,-288.71 -40.64,-432.22 -1.8,-13.24 -0.61,-27.48 -14.25,-40.32 -84.16,209.3 -209.14,393.46 -336.79,580.7 -6.64,-12.53 -0.28,-19.49 2.17,-26.27 3.06,-8.46 7.67,-16.36 11.7,-24.45 39.02,-78.34 83.01,-153.93 126.63,-229.73 51.17,-88.9 100.28,-178.88 139.45,-273.9 6.25,-15.14 14.12,-29.79 15.9,-48.65 -12.67,-5.19 -23.12,1.36 -33.48,6.06 -251.23,114 -488.73,250.46 -694.65,436.05 -126.35,113.87 -219.27,251.89 -277.67,412.35 -0.97,2.65 -3.06,4.89 -4.66,7.39 -7.47,-35.19 -7.04,-49.09 9.66,-96.82 42.99,-122.83 111.03,-230.73 200.07,-325.05 76.99,-81.56 166.03,-149.06 258.14,-212.46 139.45,-95.98 286.21,-179.31 439.44,-251.18 27.25,-12.78 55.1,-24.68 83.58,-34.32 66.72,-22.58 102.75,-2.41 120.9,66.4 10.04,38.05 12.81,77.28 17.14,116.23 16.51,148.38 31.41,297.04 35.36,446.26 4.87,184.1 -21.48,363.97 -88.07,536.77 -32.54,84.45 -66.48,168.32 -109.91,247.91 -9.72,17.82 -17.29,37.72 -39.07,53.98z"/>
  </g>
 </g>
</svg>
